<?xml version="1.0" encoding="utf-8" ?>
<svg baseProfile="full" height="200mm" version="1.1" viewBox="0,0,200,200" width="200mm" xmlns="http://www.w3.org/2000/svg" xmlns:ev="http://www.w3.org/2001/xml-events" xmlns:xlink="http://www.w3.org/1999/xlink"><defs /><rect fill="#1a1a1a" height="200" width="200" x="0" y="0" /><text alignment-baseline="middle" fill="#e1ed5e" style="dominant-baseline: central; font-size:9.0px; font-family:Arial;" text-anchor="middle" x="100.0" y="100.0">2020</text><line stroke="#e1ed5e" stroke-width="0.3" x1="100.0" x2="100.0" y1="15.0" y2="10.0" /><path d="M 100.0 14.0 a86.0,86.0 0 0,1 42.35913384403234,11.155469271406648" fill="none" id="id49" stroke="none" /><text fill="#e1ed5e" style="font-size:6.75px; font-family:Arial;" text-anchor="middle"><textPath startOffset="22.145653131862478" xlink:href="#id49">January</textPath></text><line stroke="#e1ed5e" stroke-width="0.3" x1="143.13028292997686" x2="145.6673583964461" y1="26.7553504044142" y2="22.446841604673864" /><path d="M 143.63769802327073 25.89364864446614 a86.0,86.0 0 0,1 29.32050498858742,28.57503671076993" fill="none" id="id50" stroke="none" /><text fill="#e1ed5e" style="font-size:6.75px; font-family:Arial;" text-anchor="middle"><textPath startOffset="20.669276256404974" xlink:href="#id50">February</textPath></text><line stroke="#e1ed5e" stroke-width="0.3" x1="172.87174338648825" x2="177.1583165268699" y1="56.24261187166439" y2="53.66864786411523" /><path d="M 173.72905801456457 55.72781907015455 a86.0,86.0 0 0,1 12.242430191666344,42.057860355516425" fill="none" id="id51" stroke="none" /><text fill="#e1ed5e" style="font-size:6.75px; font-family:Arial;" text-anchor="middle"><textPath startOffset="22.145653131862474" xlink:href="#id51">March</textPath></text><path d="M 120.05942366710727 93.78553927170692 l 35.40068452960782 -10.967222559074916 a58.06060490365877,58.06060490365877 0 0,0 0.2867742668296632,0.9545782660004485 l -35.58373511644111 10.357906689483743" fill="#cbff1d" stroke="none" /><path d="M 120.65975698304385 96.23510406497455 l 20.945839267286335 -3.8170296571167293 a42.29079373847539,42.29079373847539 0 0,0 0.12402315479915622,0.7153325990106968 l -21.008277239577723 3.4569040251854397" fill="#ff0000" stroke="none" /><path d="M 120.93736805541906 98.37931529534042 l 37.133220193506546 -2.874346089875224 a58.24430033419642,58.24430033419642 0 0,0 0.06860634642763033,0.9975212200344598 l -37.177090501099244 2.2364814456864304" fill="#c8ff1d" stroke="none" /><line stroke="#e1ed5e" stroke-width="0.3" x1="184.99686870605535" x2="189.99668451229388" y1="99.2704041080226" y2="99.22748670261217" /><path d="M 185.99683186730306 99.26182062694052 a86.0,86.0 0 0,1 -10.086455211305974,41.156179273409016" fill="none" id="id52" stroke="none" /><text fill="#e1ed5e" style="font-size:6.75px; font-family:Arial;" text-anchor="middle"><textPath startOffset="21.40746469413373" xlink:href="#id52">April</textPath></text><line stroke="#e1ed5e" stroke-width="0.3" x1="174.33088141563837" x2="178.70328620479359" y1="141.23008692659167" y2="143.65538615756765" /><path d="M 175.20536237346943 141.71514677278685 a86.0,86.0 0 0,1 -30.301960400862466,31.631185727798858" fill="none" id="id53" stroke="none" /><text fill="#e1ed5e" style="font-size:6.75px; font-family:Arial;" text-anchor="middle"><textPath startOffset="22.145653131862474" xlink:href="#id53">May</textPath></text><path d="M 117.81537515405839 111.11811171558189 l 31.648040110804295 19.75071770806818 a58.305352066947115,58.305352066947115 0 0,0 -0.5371930527846722,0.8445567043719496 l -31.30432936639373 -20.2910880871188" fill="#c7ff1e" stroke="none" /><path d="M 113.31354834802062 116.24036423190432 l 39.94064504406187 48.721092695712976 a84.0,84.0 0 0,0 -1.1229969185789899,0.9046068248263857 l -39.098397355127624 -49.39954781433276" fill="#4dd2ff" stroke="none" /><path d="M 110.96478420261333 117.91015095944535 l 27.551627534407334 45.00351299226095 a73.76749341630047,73.76749341630047 0 0,0 -1.0856721831354015,0.6519149520773244 l -26.775022594714496 -45.469841944874204" fill="#3aff94" stroke="none" /><line stroke="#e1ed5e" stroke-width="0.3" x1="143.1302829299769" x2="145.66735839644613" y1="173.24464959558577" y2="177.55315839532614" /><path d="M 143.63769802327073 174.10635135553383 a86.0,86.0 0 0,1 -40.68552437913181,11.842963189579606" fill="none" id="id54" stroke="none" /><text fill="#e1ed5e" style="font-size:6.75px; font-family:Arial;" text-anchor="middle"><textPath startOffset="21.407464694133747" xlink:href="#id54">June</textPath></text><path d="M 106.72888874123015 119.89276391827305 l 14.775846323706563 43.68216416020606 a67.113524049903,67.113524049903 0 0,0 -1.0945169515916062,0.35978946185721444 l -14.023806634467222 -43.929374543465286" fill="#3bff2e" stroke="none" /><path d="M 104.29559338865022 120.5559693870025 l 7.127318616270266 34.10679969723612 a55.843542532946024,55.843542532946024 0 0,0 -0.9400423117046576,0.1880347897613224 l -6.54077981903465 -34.224123883660305" fill="#f2ff19" stroke="none" /><path d="M 102.15924093988457 120.88869738790638 l 4.467117515244389 43.21530971765699 a64.44557667804655,64.44557667804655 0 0,0 -1.1014069336978753,0.10430438174966082 l -3.7246110181614984 -43.285625854911835" fill="#63ff29" stroke="none" /><line stroke="#e1ed5e" stroke-width="0.3" x1="101.45913802915013" x2="101.54496967792366" y1="184.9874750549273" y2="189.98673829345242" /><path d="M 101.47630435890484 185.9873277026323 a86.0,86.0 0 0,1 -42.54439059252881,-10.42667462771756" fill="none" id="id55" stroke="none" /><text fill="#e1ed5e" style="font-size:6.75px; font-family:Arial;" text-anchor="middle"><textPath startOffset="22.145653131862474" xlink:href="#id55">July</textPath></text><path d="M 98.55909050195518 120.95050786540614 l -2.697645281865974 39.22317034657428 a60.31582864576502,60.31582864576502 0 0,0 -1.0323513771958062,-0.07991052564137582 l 3.3705656538370166 -39.17108205393785" fill="#a5ff21" stroke="none" /><path d="M 96.76829788921471 120.74984581791261 l -5.722161767176946 36.74038334715947 a58.18331485741925,58.18331485741925 0 0,0 -0.9855768591300458,-0.1621762971138657 l 6.352016129360055 -36.63674105154994" fill="#c9ff1d" stroke="none" /><path d="M 93.95794788825049 120.11202640906438 l -10.733420293205342 35.72806530032177 a58.30550845779546,58.30550845779546 0 0,0 -0.9560975234582884,-0.2962014567593288 l 11.345158449535264 -35.53854725575579" fill="#c7ff1e" stroke="none" /><line stroke="#e1ed5e" stroke-width="0.3" x1="58.13341422392154" x2="55.67067388415222" y1="173.97424548756322" y2="178.32567169271397" /><path d="M 57.64086615596768 174.84453072859336 a86.0,86.0 0 0,1 -31.369924170532247,-30.572349798747897" fill="none" id="id56" stroke="none" /><text fill="#e1ed5e" style="font-size:6.75px; font-family:Arial;" text-anchor="middle"><textPath startOffset="22.145653131862474" xlink:href="#id56">August</textPath></text><path d="M 89.34428304082925 118.09573695890944 l -23.13289757396713 39.2847174150617 a66.5896915162727,66.5896915162727 0 0,0 -0.9800329713631273,-0.5884816406691582 l 23.803863301887684 -38.88182177385662" fill="#43ff2d" stroke="none" /><path d="M 87.2517909369889 116.68781488649013 l -22.633250040500602 29.627650840102174 a58.28353123966167,58.28353123966167 0 0,0 -0.7898530182071293,-0.6141944843411322 l 23.13851300334296 -29.23475530414025" fill="#c7ff1e" stroke="none" /><path d="M 85.60350026404147 115.28858382429668 l -25.590164008495293 27.17586737727478 a58.32806265651776,58.32806265651776 0 0,0 -0.7230666455077834,-0.6926814899672129 l 26.05290313986839 -26.732573757001987" fill="#c6ff1e" stroke="none" /><line stroke="#e1ed5e" stroke-width="0.3" x1="26.387840678322732" x2="22.057713659400548" y1="142.50000000000003" y2="145.00000000000006" /><path d="M 25.521815274538298 143.00000000000003 a86.0,86.0 0 0,1 -11.493303480769221,-40.785679425670985" fill="none" id="id57" stroke="none" /><text fill="#e1ed5e" style="font-size:6.75px; font-family:Arial;" text-anchor="middle"><textPath startOffset="21.40746469413373" xlink:href="#id57">September</textPath></text><path d="M 80.9802524753101 108.90220220490708 l -33.52427624149752 15.691054020962298 a58.014676464950924,58.014676464950924 0 0,0 -0.41443346362620936,-0.9056119113552904 l 33.78869416997878 -15.113253127392317" fill="#ccff1d" stroke="none" /><path d="M 79.407916724674 104.11899336999214 l -36.50930725482414 7.302883953748278 a58.23253456681493,58.23253456681493 0 0,0 -0.18765769161637275,-0.9819043391294292 l 36.629291238722665 -6.675077049585535" fill="#c8ff1d" stroke="none" /><line stroke="#e1ed5e" stroke-width="0.3" x1="15.003131293944662" x2="10.003315487706104" y1="100.72959589197737" y2="100.7725132973878" /><path d="M 14.003168132696942 100.73817937305945 a86.0,86.0 0 0,1 10.791469493833604,-42.45332614584628" fill="none" id="id58" stroke="none" /><text fill="#e1ed5e" style="font-size:6.75px; font-family:Arial;" text-anchor="middle"><textPath startOffset="22.145653131862435" xlink:href="#id58">October</textPath></text><path d="M 79.01933749520258 99.09900007780938 l -36.86895202909224 -1.5833114374660997 a57.90293347190052,57.90293347190052 0 0,0 0.05117078147811546,-0.9926994902912333 l 36.836339658157556 2.215982721134045" fill="#ceff1d" stroke="none" /><line stroke="#e1ed5e" stroke-width="0.3" x1="26.387840678322718" x2="22.05771365940052" y1="57.49999999999999" y2="54.99999999999999" /><path d="M 25.521815274538284 56.99999999999999 a86.0,86.0 0 0,1 29.574782752854787,-30.34633250058573" fill="none" id="id59" stroke="none" /><text fill="#e1ed5e" style="font-size:6.75px; font-family:Arial;" text-anchor="middle"><textPath startOffset="21.40746469413373" xlink:href="#id59">November</textPath></text><line stroke="#e1ed5e" stroke-width="0.3" x1="56.869717070023135" x2="54.33264160355391" y1="26.7553504044142" y2="22.446841604673864" /><path d="M 56.362301976729285 25.89364864446614 a86.0,86.0 0 0,1 42.16139366436587,-11.88097634709845" fill="none" id="id60" stroke="none" /><text fill="#e1ed5e" style="font-size:6.75px; font-family:Arial;" text-anchor="middle"><textPath startOffset="22.145653131862474" xlink:href="#id60">December</textPath></text><path d="M 90.61103034731259 81.2157712731953 l -16.60357785664368 -33.2182780091566 a58.13667717412592,58.13667717412592 0 0,0 0.8965222402286394,-0.43853395299819886 l 16.030895367152983 33.498405712252016" fill="#caff1d" stroke="none" /><path d="M 98.1996594967304 79.07731436759882 l -3.169803505090028 -36.837921567079704 a57.97404656841332,57.97404656841332 0 0,0 0.9922699921444368,-0.07680797294600028 l 2.536964518170374 36.886907307020756" fill="#cdff1d" stroke="none" /></svg>