<?xml version="1.0" encoding="utf-8" ?>
<svg baseProfile="full" height="300mm" version="1.1" viewBox="0,0,200,300" width="200mm" xmlns="http://www.w3.org/2000/svg" xmlns:ev="http://www.w3.org/2001/xml-events" xmlns:xlink="http://www.w3.org/1999/xlink"><defs /><rect fill="#222222" height="300" width="200" x="0" y="0" /><text fill="#FFFFFF" style="font-size:12px; font-family:Arial; font-weight:bold;" x="10" y="20">Over 10km Runs</text><text fill="#FFFFFF" style="font-size:4px; font-family:Arial" x="10" y="280">ATHLETE</text><text fill="#FFFFFF" style="font-size:9px; font-family:Arial" x="10" y="290">Tomcat的猫</text><text fill="#FFFFFF" style="font-size:4px; font-family:Arial" x="120" y="280">STATISTICS</text><text fill="#FFFFFF" style="font-size:3px; font-family:Arial" x="120" y="285">Number: 15</text><text fill="#FFFFFF" style="font-size:3px; font-family:Arial" x="120" y="290">Weekly: 1.2</text><text fill="#FFFFFF" style="font-size:3px; font-family:Arial" x="141" y="285">Total: 253.1 km</text><text fill="#FFFFFF" style="font-size:3px; font-family:Arial" x="141" y="290">Avg: 16.9 km</text><text fill="#FFFFFF" style="font-size:3px; font-family:Arial" x="167" y="285">Min: 10.0 km</text><text fill="#FFFFFF" style="font-size:3px; font-family:Arial" x="167" y="290">Max: 41.5 km</text><polyline fill="none" points="50.13493975903839,42.28206192480866 39.46506024105474,35.9984062735457 23.850602409336716,36.84755091823172 19.81686746980995,40.413951637689024 14.742168674245477,51.62256823980715 13.18072289135307,65.71809903834946 25.412048192694783,66.90687091380823 38.68433734914288,71.49212245177478 53.12771084345877,57.90613926888909 55.33975903596729,52.9811810759129 54.29879518086091,46.357928474084474 38.81445783143863,37.01737977238372 25.932530120480806,36.50789313507266 20.987951807212085,38.71566694811918 14.221686746459454,55.868228069273755 13.310843373183161,66.22757284797262 15.91325301118195,68.43529010622296 27.36385542107746,67.41634420165792 39.33493975922465,70.30335527472198 54.168674698565155,56.377706205123104 54.81927710864693,46.188100986764766 38.42409638501704,36.338064206414856 22.809638554230332,37.696694941143505 19.036144577898085,41.09326481737662 13.701204818673432,54.67944488313515 13.18072289135307,66.56722193071619 15.002409638371319,68.09564157109708 25.542168674990535,66.90687091380823 39.725301204714924,70.30335527472198 53.25783132528886,57.22683593351394 55.33975903596729,52.47170144866686 54.68915662681684,45.84844593820162 39.07469879509881,36.67772203870118 24.8915662644431,37.35703740641475 19.556626505684108,39.7346380604431 13.961445781867951,55.019097346346825 13.701204818673432,67.58616858138703 27.36385542107746,66.90687091380823 34.91084337327629,71.15247481130064 38.94457831326872,70.8128270705929 53.12771084345877,58.24579078680836 55.46987951826304,53.32083403633442 54.94939759047702,46.69758337351959 38.68433734914288,36.50789313507266 23.980722891166806,38.03635237575509 19.81686746980995,40.58377996971831 13.961445781867951,56.20788018486928 12.920481927227229,66.56722193071619 15.783132529817522,68.26546585117467 27.49397590337321,67.24651979701594 38.94457831326872,70.8128270705929 53.25783132528886,58.58544220670592 55.59999999962747,53.151007568696514 54.94939759047702,46.69758337351959 38.03373493999243,36.67772203870118 21.768674698192626,38.37600971199572 14.351807228289545,55.019097346346825 13.18072289135307,65.03880027646665 15.91325301118195,68.43529010622296 25.28192771039903,67.0766953676939 38.81445783143863,70.13353129266761 53.648192771710455,57.90613926888909 55.59999999962747,51.45274152327329 52.73734939750284,44.48982474976219 37.643373494036496,36.84755091823172 25.02168674673885,37.18720860150643 18.5156626496464,41.94240573258139 13.05060240905732,63.68020156084094 14.612048192415386,67.92581726575736 26.8433734937571,66.90687091380823 33.99999999953434,70.30335527472198 39.33493975922465,69.7938832542859 54.55903614452109,56.20788018486928 54.428915662225336,46.357928474084474 38.94457831326872,36.84755091823172 20.59759036079049,38.88549552881159 13.701204818673432,58.7552678786451 13.18072289135307,66.90687091380823 15.783132529817522,68.60511433694046 28.274698794819415,67.58616858138703 39.33493975922465,70.8128270705929 55.46987951826304,54.50961861445103 53.518072289414704,45.50879079045262 38.94457831326872,36.338064206414856 19.556626505684108,39.904466491774656 12.399999999906868,64.69915074692108 15.91325301118195,67.75599293608684 26.8433734937571,67.0766953676939 38.55421686684713,72.00159372633789 54.55903614452109,56.54753220023122 54.29879518086091,45.84844593820162 39.985542168840766,37.52686618629377 20.07710843347013,38.88549552881159 12.660240963101387,65.03880027646665 16.043373493477702,68.26546585117467 26.71325301192701,67.0766953676939 39.46506024105474,71.83176999283023 54.68915662681684,57.057010037009604 54.55903614452109,46.357928474084474 39.46506024105474,36.50789313507266 24.3710843375884,37.86652367084753 19.426506023854017,40.58377996971831 13.18072289135307,66.05774826963898 29.315662649925798,67.75599293608684 37.513253011740744,72.00159372633789 53.77831325260922,57.057010037009604 54.81927710864693,47.88637473830022 41.15662650577724,37.52686618629377 20.4674698789604,38.71566694811918 14.481927710585296,54.16996600199491 13.440963855013251,67.75599293608684 27.754216867499053,67.92581726575736 39.725301204714924,71.15247481130064 55.33975903596729,55.019097346346825 53.38795180711895,46.01827347523067 41.02650602394715,37.52686618629377 20.4674698789604,38.54583834228106 14.091566264163703,54.00013965880498 12.790361444931477,65.37844970740844 16.043373493477702,68.60511433694046 27.884337348863482,67.75599293608684 39.2048192769289,71.83176999283023 55.59999999962747,54.00013965880498 55.07951807277277,48.3958563786 52.47710843384266,46.357928474084474" stroke="#4dd2ff" stroke-linecap="round" stroke-linejoin="round" stroke-width="0.5"><title>2021-10-27 10.5km</title></polyline><polyline fill="none" points="116.10181818204,42.29647060262505 105.36727272765711,35.9747321899049 88.87272727256641,37.34159745078068 80.36363636376336,52.035297910217196 79.97090909117833,66.3871058342047 91.62181818205863,67.07052085804753 105.10545454546809,71.51270875602495 119.37454545451328,57.50267411803361 121.33818181836978,51.86444199108519 120.02909090928733,46.0553258593427 104.18909090943635,36.99988128559198 90.57454545516521,36.658165020286106 86.64727272745222,39.22103457071353 79.97090909117833,56.306687761098146 79.05454545468092,66.3871058342047 82.06545454543084,68.60820319701452 93.19272727239877,67.58308186277281 100.39272727258503,70.8292963335989 105.6290909089148,70.31673675426282 120.4218181814067,56.135832466883585 121.2072727275081,47.08046610059682 118.32727272761986,44.00504267413635 103.79636363638565,36.316448655561544 90.83636363688856,37.17073938040994 85.73090909095481,39.73360780568328 79.97090909117833,52.718721336801536 79.1854545455426,67.24137455096934 91.75272727292031,67.07052085804753 104.8436363642104,70.48758997255936 119.37454545451328,56.99010868615005 121.33818181836978,52.20615380455274 120.4218181814067,45.54275540064555 104.97454545460641,36.658165020286106 90.31272727251053,37.34159745078068 85.2072727275081,40.075323170167394 79.70909090852365,55.11070017807651 79.44727272680029,67.7539354810724 82.85090909060091,68.77905666548759 93.9781818180345,67.41222821932752 101.17818181822076,71.341855688137 105.23636363679543,70.65844316547737 119.37454545451328,58.01523932442069 120.81454545492306,46.56789609242696 104.05818181857467,36.48730685049668 89.2654545456171,38.195887425681576 85.46909090969712,40.9296111445874 80.10181818204,54.427278152434155 79.05454545468092,67.07052085804753 93.84727272763848,67.58308186277281 103.92727272771299,71.51270875602495 119.2436363636516,58.69865924969781 121.60000000009313,52.37700967397541 120.68363636406139,46.39703937328886 106.67636363627389,37.5124554958893 88.47999999998137,37.8541715106694 85.33818181836978,40.075323170167394 80.49454545462504,53.231288644252345 79.05454545468092,65.53283649275545 81.67272727238014,68.60820319701452 92.01454545464367,67.41222821932752 104.71272727334872,70.31673675426282 118.19636363675818,59.38207877415698 121.60000000009313,51.522730077267624 118.72000000020489,44.517613808158785 106.15272727329284,37.5124554958893 91.2290909094736,37.17073938040994 84.29090909054503,41.95475588797126 79.05454545468092,67.24137455096934 92.66909090941772,67.07052085804753 102.35636363644153,70.8292963335989 119.11272727278993,58.35694933636114 121.46909090969712,52.889577131019905 120.16000000014901,46.226182628422976 104.45090909069404,36.82902316574473 86.3854545452632,38.87931895570364 79.44727272680029,58.869514168123715 79.1854545455426,67.41222821932752 81.93454545456916,68.77905666548759 95.41818181844428,67.9247890743427 104.45090909069404,71.1710025947541 121.46909090969712,54.08556698949542 119.2436363636516,45.37189853109885 107.46181818190962,37.5124554958893 86.12363636307418,38.87931895570364 79.97090909117833,53.40214436315 78.39999999990687,65.19112858048175 82.06545454543084,67.9247890743427 93.06181818200275,67.41222821932752 103.40363636380062,72.02526781021152 119.63636363716796,57.67352921178099 121.07636363711208,47.93474894820247 105.36727272765711,37.5124554958893 86.90909090870991,38.195887425681576 79.70909090852365,56.306687761098146 78.66181818209589,66.21625201602001 80.49454545462504,68.26649618591182 92.93090909114107,67.41222821932752 105.6290909089148,71.68356179923285 121.46909090969712,55.11070017807651 120.29090909147635,46.0553258593427 105.36727272765711,36.48730685049668 89.65818181820214,38.02502948057372 85.33818181836978,40.41703843488358 79.70909090852365,56.81925349240191 79.31636363686994,66.55795962770935 81.14909090939909,67.7539354810724 93.19272727239877,67.58308186277281 105.36727272765711,72.02526781021152 121.60000000009313,53.060432899859734 119.37454545451328,45.88446906453464 106.67636363627389,37.5124554958893 88.3490909091197,38.02502948057372 85.46909090969712,39.73360780568328 81.14909090939909,51.522730077267624 79.1854545455426,67.9247890743427 90.83636363688856,67.7539354810724 105.6290909089148,71.341855688137 121.33818181836978,54.7689892151393 119.37454545451328,46.0553258593427 107.85454545449466,38.02502948057372 88.08727272739634,37.8541715106694 85.33818181836978,39.39189234026708 79.97090909117833,53.060432899859734 79.97090909117833,68.09564264235087 94.10909090936184,68.09564264235087 105.89090909110382,71.341855688137 120.94545454578474,55.281555622350425 119.76727272709832,46.0553258593427" stroke="#4dd2ff" stroke-linecap="round" stroke-linejoin="round" stroke-width="0.5"><title>2021-10-27 10.5km</title></polyline><polyline fill="none" points="174.49208850297146,71.98824801674346 177.37103517353535,72.15623849919939 178.6094647468417,72.55521510585095 178.97938526875805,73.26917047223833 178.35212873166893,74.73906738165533 178.99546876962995,75.57900170497305 181.69749692972982,74.38209380384069 182.34083696786547,73.75213826241088 183.4023480307078,71.10629475369933 183.32193052594084,65.5834640195826 183.5470995392534,64.30247287378006 183.22542952024378,63.46247246423445 182.11566795455292,62.13946183559892 181.7939979354851,60.837439451541286 182.14783495647134,60.039419885521056 183.9652705640765,58.40136580172111 184.17435607645893,57.414324172757915 182.9680935050128,55.14620275552443 182.72684099071193,54.03313004030497 178.43254623631947,52.14298675596365 177.2906176687684,51.82796045138093 174.92634302866645,51.86996399865893 171.77397684199968,52.33200220626895 170.9215512914816,50.86187546575093 170.82505028584274,49.60175482677005 171.01805229723686,47.54353395232465 171.51664082682692,46.93446292298904 171.3718893182231,43.65803641328239 172.86765490676044,43.11195804469753 180.47515085735358,42.0407982768229 185.47711965360213,41.01163723162608 185.1554496345343,38.764259866278735 184.36735808785306,37.23098218310042 183.48276553541655,36.390823069406906 182.48558847641107,36.22279065553448 179.3332222896861,37.188974344404414 177.82137320016045,36.894919128812035 176.06827159627574,36.22279065553448 172.73898689914495,33.471231843548594 169.3453681981773,32.40000000000873 160.1938561561401,33.21917801267409 158.1512515351642,33.11415545233467 156.04431291035144,33.76529408576607 152.40944169502473,33.72328523102624 149.38574351597345,34.43743408744922 147.95431193127297,35.40362981567159 146.68371535593178,37.504032834316604 146.52288034645608,38.86927828527405 148.22773144737585,42.29283658962231 154.00170828943374,41.830766010825755 160.00085414474597,41.8727724886121 162.2042937752558,42.92293043222162 161.96304126089672,44.45614720856247 162.42946278856834,45.506286219111644 164.5524849143112,46.6404277063848 165.46924446860794,47.711553091023234 166.49858852953184,48.02658844512189 168.78244566480862,47.480526724481024 170.84113378671464,47.66954832486226 170.6320482743904,51.386922461533686 169.68312171817524,52.60502408319735 166.2895030172076,51.95397105632583 163.8287273714086,52.22699365350127 160.9015301980544,54.93618969737145 159.74351812939858,55.545226718095364 157.02540646854322,56.23826569663652 155.49747387797106,57.1413114581228 153.55137026269222,58.8213814542687 153.13319923792733,59.472403282969026 152.90803022467298,60.85843990648573 153.0688652341487,61.908458727397374 153.8247897789115,62.916469557909295 156.49465093697654,64.97446965666313 157.31490948563442,66.06645770880277 161.17494971421547,67.93541795364581 162.59029779804405,70.5393219330872 164.15039739047643,72.0512444707274 168.49294264765922,72.0092468377843 170.31037825532258,72.84919715799333 171.9348118515918,73.05918396897323 173.8326649639057,72.24023366655456 174.74942451820243,72.0512444707274 178.3038782287622,72.5132176206098 178.94721826683963,73.18517590789997 178.11087621736806,74.50808457990934 178.85071726114256,75.60000000000582 181.71358043065993,74.67607210902497 182.5338389793178,73.4581580622471 183.32193052594084,71.46327649010345 183.45059853355633,64.19747309185914 181.92266594310058,62.03446046895988 181.72966393170645,61.1944467661815 182.13175145548303,60.08142102614511 183.65968404599698,58.7793799443898 184.1421890745405,57.87634450494079 183.9652705640765,56.78429404650524 182.87159249931574,55.083198870386695 182.80725849542068,54.26414584302984 180.10523033543723,52.81504055773257 177.25845066679176,51.74395331987762 174.47600500204135,51.80695867309987 170.5033802667749,52.58402241884323 166.1286680076155,51.82796045138093 163.78047686850186,52.289998794411076 161.23928371811053,54.978192333626794 159.72743462852668,55.69223526632413 156.65548594656866,56.42727574551827 153.92129078460857,58.653375340945786 153.02061473130016,60.165423270329484 153.1010322360089,62.13946183559892 153.92129078460857,63.46247246423445 156.60723544372013,65.24746744969161 157.62049600371392,66.3184537699999 159.85610263614217,66.96944154425 161.0784487085184,67.66242528049042 162.5259637942072,70.72831312243943 163.94131187809398,72.2612324507354 167.8817696115002,71.94625036536308 170.40687926107785,72.93319191930641 172.43340038106544,72.93319191930641" stroke="#4dd2ff" stroke-linecap="round" stroke-linejoin="round" stroke-width="0.5"><title>2021-10-24 15.3km</title></polyline><polyline fill="none" points="42.5138835212565,115.20574592762568 40.272280072502326,113.05219720399327 38.262203740596306,110.52823017870833 36.115315930510405,108.74495175415359 35.94693257287145,107.90817098629486 34.62091363139916,105.80932743604353 34.463054233579896,104.94508411786228 33.94738020078512,104.1631428402834 33.137035292049404,101.83099864490941 32.46350186149357,100.81581191925943 31.979399708274286,98.3189546770518 31.4637256754213,97.45464248549979 30.39028177043656,96.5903223457135 29.09583470848156,94.49122605741286 25.917598832864314,91.84327955474146 25.191445602977183,89.89500184528879 24.454768413270358,88.76992167303251 23.791758942534216,87.15088022639975 23.781234982656315,86.02576720084471 22.718315037549473,84.65365991436556 22.055305566696916,82.70523314337333 21.581727373355534,80.39999999999418 20.13994487345917,81.67611819233571 20.287280311400536,83.96759875811404 21.02395750110736,86.68437158221059 22.339452482759953,89.35990441863396 22.886698395130225,90.92402679487714 23.14979739143746,92.52928321836225 23.98119021987077,93.80523671435367 24.04433397896355,94.25799024257867 26.843707299907692,97.16653665536433 27.338333413004875,98.48358466959326 28.011866843618918,99.19697797170375 28.695924234110862,101.85843597177154 29.20107430702774,102.70898913331621 29.97984733612975,104.76674720607843 31.863636149908416,108.182526157143 34.19995523727266,111.5707465120795 36.178459689661395,113.90264909073449 37.430810912163,114.76681006303988 37.64129010919714,115.6583963916346 38.46215897781076,116.34422627546883 39.91446543746861,118.30567212853202 41.19838853960391,119.37553443761135 42.01925740810111,120.774566780834 44.08195353933843,123.33940534474823 44.68181925092358,123.5588535235147 45.734215236327145,123.59999999999854 46.90237478003837,122.96908538172283 48.038962444115896,121.88554822399601 48.12315412296448,121.4466435434515 46.807659141370095,119.348102222757 47.1759977361653,118.84060480482003 45.29220892244484,116.70085583792388 44.10300145909423,116.00131195896392 43.471563867875375,115.91901233686804 42.5349314409541,115.41149640870572 41.80877821112517,114.35530582879437 40.28280403238023,113.16193336361903 38.53582669678144,110.85744711186999 36.22055552905658,108.9644340011655 35.97850445244694,107.8807354251403 35.35759082110599,107.24971530932089 34.54724591237027,105.76817317247333 34.41043443430681,104.86277481599245 33.978952080360614,104.35519919526996 33.158083211805206,101.98190384374902 32.40035810240079,100.77465546936583 31.968875748396385,98.00341305208713 30.348185930983163,96.57660291434877 28.9169273909647,94.36774834517564 26.00179051165469,91.98048068803473 25.1177778840065,89.75779766734195 24.412672573816963,88.71503936888621 23.739139143261127,87.19204264262225 23.57075578562217,85.75134734628227 22.886698395130225,84.9418041063982 22.255260803969577,83.45991027776472 21.55015549378004,80.45488716064574 20.67666682600975,81.23702571624017 19.866321917274036,81.42912892699678 20.05575319461059,83.2129257010165 21.034481460985262,86.7392550723307 22.928794234525412,90.80054439587548 23.22346511046635,92.52928321836225 23.98119021987077,93.72291765672708 24.04433397896355,94.20311114317883 27.01209065760486,97.29001069068909 27.31728549330728,98.40126970937126 28.106582482287195,99.29301127192593 28.706448193930555,101.68009320378769 29.8009400186711,104.28660768496775 32.22145078488393,108.7037987757576 34.463054233579896,111.83137378902029 36.125839890388306,113.77919687483518 37.51500259101158,114.73937650345033 37.55709843040677,115.4663631276344 38.86206945218146,116.74200531579118 40.00918107619509,118.41540215638815 41.17734061990632,119.348102222757 41.987685528583825,120.71970315952785 43.51365970727056,122.33816652996757 44.071429579518735,123.22968106333428 44.75548696995247,123.5588535235147 45.80788295529783,123.47656051651575 46.72346746252151,123.0102321162849 47.91267492593033,121.99527407399 48.13367808278417,121.62494881700695 48.038962444115896,121.1586112334262 46.89185082016047,119.33438611236488" stroke="#4dd2ff" stroke-linecap="round" stroke-linejoin="round" stroke-width="0.5"><title>2021-10-17 16.9km</title></polyline><polyline fill="none" points="108.49553283292335,115.21679985064111 106.2321628711652,113.03512441091152 104.2109208588954,110.52407682027115 102.15809694019845,108.83628584195685 101.87385978223756,107.82085228429787 100.58952892024536,105.78995227252017 100.42109208588954,104.92543422784365 99.92630888492567,104.17068975371512 99.09465201530838,101.81035884622543 98.43143198004691,100.78112623639026 97.989285289892,98.44815727543028 97.42081097391201,97.43261152617924 96.41018996777711,96.63663556801475 95.0521679907688,94.48197718115262 92.00977767020231,92.02533189462702 91.15706619626144,89.85684304897586 90.42015504592564,88.74513000522711 89.84115342784207,87.31772607955645 89.73588040639879,86.00010321812442 88.68315019161673,84.6138342288832 88.01993015635526,82.67851362546207 87.55672886187676,80.39999999999418 86.10396116552874,81.71770136141276 86.27239799988456,84.00990867213113 87.03036375448573,86.75499357531953 88.86211432813434,90.92736911031534 89.12529688177165,92.53313534562767 89.86220803210745,93.6448035957801 90.02011756435968,94.26239138822712 92.8414345398196,97.1993089262105 93.22041741712019,98.32464554045146 93.92574666097062,99.09316036621021 94.68371241557179,101.90641998163483 95.97857057972578,104.81565358991065 97.86295766406693,108.2187937688359 100.21054604294477,111.60808919624105 102.15809694019845,113.91328916449129 103.42137319786707,114.80516684900795 103.65297384507721,115.68331507444964 104.83203168562613,116.80843050516705 105.89528920245357,118.31771055409627 107.20067466871114,119.42907401516277 108.02180423622485,120.82855006324098 110.0956827593036,123.36676231085585 110.66415707516717,123.57256030184362 111.74846919637639,123.59999999999854 112.88541782833636,122.98260485616629 114.04342106450349,121.87128338446928 114.10658487741603,121.45967950706836 112.79067210899666,119.36047171268001 113.12754577765008,118.83909257854248 111.25368599547073,116.68494288381771 108.48500553070335,115.39517359181627 107.76914898469113,114.33864726906177 106.2321628711652,113.14489545354445 104.48463071475271,110.83967664956435 102.17915154446382,108.94606178599497 101.98966010584263,107.95807367606176 101.32644007058116,107.21707578143833 100.6421654309379,105.98206631418725 100.38951017946238,104.87054392486607 99.91578158282209,104.26674847777758 99.11570661957376,101.96131201497337 98.37879546929616,100.72623351411312 97.92612147697946,97.98155653657159 96.4207172698807,96.69153067804291 94.87320385425119,94.35846023575141 92.0203049723641,92.03905634829425 91.07284777902532,89.73332002666575 90.49384616099996,88.92355397198844 89.71482580207521,87.15302423188405 89.50427975913044,85.68441999842616 88.86211432813434,84.94324653354852 88.23047619930003,83.46088207169669 87.46198314253706,80.45490459221037 86.54610785568366,81.26474360197608 85.89341512258397,81.347099720595 86.03027005045442,83.21381905535236 87.03036375448573,86.76871879841929 88.91475083882688,90.83129675658711 89.20951529900776,92.56058410265541 89.95695375144714,93.72714886919857 90.04117216862505,94.23494312800176 92.99934407201363,97.33654581983865 93.2941085321363,98.40698671511927 94.0415469846339,99.21667109155533 94.68371241557179,101.6868515278984 95.7785518389428,104.29419380948093 98.19983133283677,108.71278775169776 100.46320129442029,111.85507760999462 102.13704233593307,113.81724029396719 103.4950643129414,114.75028231265605 103.55822812573751,115.51866290676844 104.66359485127032,116.56145510028728 105.84265269176103,118.26282806757808 107.19014736660756,119.38791263970052 107.99022232979769,120.75994878154597 110.08515545714181,123.27072309425421 110.76943009672686,123.57256030184362 111.8326876135543,123.47652129540802 112.70645369181875,123.0237646584792 113.82234771939693,122.10452478208754 114.09605757525424,121.41851902026974 112.9275270368671,119.41535355868109" stroke="#4dd2ff" stroke-linecap="round" stroke-linejoin="round" stroke-width="0.5"><title>2021-10-17 16.9km</title></polyline><polyline fill="none" points="180.66078740160447,99.24860391837137 175.46771653543692,102.35613353495137 171.65795275592245,105.84834792367474 170.77354330709204,107.29848702441086 169.36755905509926,107.77199958062556 166.4195275590755,112.44787653871754 162.06551181105897,117.09405224898364 158.82267716526985,121.59215888341714 156.91779527557082,122.0064531469834 154.65007874008734,120.70438260366791 152.49574803141877,120.52682688004279 150.13732283457648,118.54411071000504 148.61795275576878,112.98056452185847 147.8922834644327,111.85599935610662 146.62236220459454,111.44168429760612 144.40000000002328,104.33900842705043 146.73574803152587,82.5855114535807 147.41606299206614,82.1119399117888 148.79937007871922,81.9935468530166 150.86299212602898,82.46711867210979 151.8381102362182,82.23033290125022 153.06267716537695,82.73350233287783 153.78834645659663,82.79269865431706 154.51401574793272,82.23033290125022 155.76125984243117,82.64470781832642 166.35149606294,82.73350233287783 169.20881889760494,83.35506284315488 169.93448818905745,82.97028751455946 171.2497637794586,83.29586668648699 175.62645669304766,82.91109124514333 186.87433070875704,83.32546476699645 187.59999999997672,83.76943545517861 187.57732283463702,86.99559317463718 186.12598425196484,88.65304868303065 185.30960629926994,88.71224327133677 182.79244094481692,87.3211658646178 179.98047244094778,87.43955580373586 179.2774803149514,87.91311486704217 179.14141732279677,89.27459099587577 178.32503936998546,90.57686393197218 178.64251968509052,92.85582138788595 180.910236220574,92.6782412101893 182.5203149606241,93.53654395751073 183.3820472441148,93.50694737173035 185.58173228334635,90.87283388414653 185.89921259856783,89.54096568787645 185.53637795278337,88.74184055902879 182.38425196846947,87.43955580373586 179.91244094481226,87.64673803043843 179.16409448825289,88.14989398283069 178.98267716541886,89.48177134220896 178.34771653544158,90.48807286187366 178.66519685043022,93.18138464183721 180.9782677165931,92.82622470245406 183.291338582756,93.53654395751073 185.8765354331117,90.2216994176124 185.6270866142586,88.91942419396946 185.08283464575652,88.53465945449716 182.24818897643127,87.40995832551562 180.1618897637818,87.55794567360135 179.1867716535926,88.20908871844586 178.25700787408277,92.1159029520204 178.52913385815918,92.94461141823558 181.0689763779519,92.85582138788595 183.4500787401339,93.62533368900768 184.17574803147,92.20469330722699 185.96724409447052,90.36968470773718 185.98992125981022,89.54096568787645 185.37763779528905,88.91942419396946 182.42960629914887,87.3803608429298 179.88976377947256,87.46915327776514 179.3455118109705,87.853920044814 178.4611023622565,90.25129648433358 178.43842519680038,93.1221913620102 180.57007874012925,92.73743462008133 183.56346456694882,93.53654395751073 184.47055118111894,91.8791284806066 185.8085039369762,90.57686393197218 185.8085039369762,89.33378540222475 184.92409448814578,88.5642567681789 182.633700787439,87.43955580373586 179.98047244094778,87.46915327776514 179.2094488189323,88.62345138240198 179.3681889763102,89.54096568787645 178.25700787408277,90.7840429439384 178.27968503942247,93.18138464183721 181.18236220476683,92.91501474579854 183.04188976378646,93.53654395751073 185.7404724409571,90.39928175276145 185.51370078744367,88.62345138240198 182.40692913380917,87.29156836900802 179.88976377947256,87.3211658646178 179.14141732279677,88.03150445962092 179.02803149609827,89.48177134220896 178.32503936998546,90.51766988962481 178.574488188955,92.9742080863216 180.910236220574,92.85582138788595 183.10992125992198,93.35896437769406 185.51370078744367,90.96162478522456 185.853858267772,89.77774289736408 185.60440944880247,88.94902145127708 182.74708661425393,87.29156836900802 179.61763779527973,87.70593291334808 179.14141732279677,89.57056285427825 178.48377952747978,90.28089354666008 178.25700787408277,92.6782412101893 178.52913385815918,93.1221913620102 181.34110236214474,93.0038047501439 183.3820472441148,93.74371993687237 185.8311811024323,90.4584758298879 185.89921259856783,89.54096568787645" stroke="#4dd2ff" stroke-linecap="round" stroke-linejoin="round" stroke-width="0.5"><title>2021-09-17 10.7km</title></polyline><polyline fill="none" points="48.479873217176646,147.49920659414784 46.28906497627031,148.3927042339783 43.367987321689725,150.47751680355577 39.96767036465462,153.3962185177952 39.14611727418378,154.64707786624786 37.36608557845466,155.7788011275843 34.0570522978669,160.54388266325986 26.024088748032227,170.07371102987963 24.358161648269743,169.98437096108682 22.212995245703496,168.79316629610548 20.29603803495411,168.67404544611054 18.19651347072795,166.91700481038424 16.439302694168873,161.28841657443263 15.640570523100905,159.79934602802678 14.545166402473114,159.35262273950502 12.514104595873505,153.72382528078742 12.400000000023283,149.55424530066375 14.38541996839922,130.7305064744869 15.001584786106832,130.07521837740205 16.621870047645643,129.92628897012037 17.991125198313966,130.34329103582422 23.262757527758367,130.25393352228275 29.35594294767361,130.81986377871362 32.61933438992128,130.8794352931145 33.37242472276557,130.55179174827936 36.2706814580597,130.9985782695294 48.867828843183815,130.8794352931145 54.86973058630247,131.26664971141145 55.41743264661636,131.8027915355633 55.59999999997672,134.98982766419067 54.230744849541225,136.35994000219216 53.18098256736994,136.59821946706506 50.55657686223276,135.13875336521596 47.84088748018257,135.46638952383364 46.38034865295049,138.62358365206455 46.5400950871408,140.70849631387682 49.1188589540543,140.76806493320328 51.03581616492011,141.4531028016354 53.683042789343745,138.86186046608782 53.77432646602392,137.1641320776689 50.60221870045643,135.079183097856 47.544215530972,135.55574474822788 46.42599049129058,138.47466050164076 46.5400950871408,140.8574178294366 49.07321711583063,140.79784923628904 50.41965134709608,141.30418172206555 52.35942947701551,140.41065295586304 53.705863708397374,138.74272209397168 53.660221870057285,137.19391690836346 50.76196513476316,135.19832361508452 47.795245641842484,135.46638952383364 47.019334389828146,136.50886470045953 46.266244057100266,140.76806493320328 49.027575277374126,140.79784923628904 50.64786053891294,141.4828870044439 51.469413629267365,141.33396594662918 53.888431061874144,137.6406888448837 53.63740095088724,136.89606840573833 51.88019017432816,135.70467003510566 48.02345483365934,135.25789384759264 46.266244057100266,138.5044451404101 46.44881141046062,140.94677068640885 48.98193343903404,140.73828062572284 51.081458003260195,141.4828870044439 53.705863708397374,138.89164504820656 53.54611727420706,136.77692888258025 50.9901743264636,135.3174640625948 48.43423137895297,135.3174640625948 47.361648177495226,136.03230528240965 46.28906497627031,139.01078333317128 46.28906497627031,140.29151549053495 46.76830427895766,140.8872021194402 48.95911251974758,140.79784923628904 51.19556259911042,141.24461325975426 53.54611727420706,138.86186046608782 53.81996830436401,138.08745980044478 53.56893819337711,136.95563814110938 51.127099841600284,135.4961746030167 47.97781299520284,135.3770342601929 46.38034865295049,138.62358365206455 46.5400950871408,140.9169864050782 49.09603803488426,140.76806493320328 51.14992076065391,141.4233185944322 52.70174326468259,139.9936715221702 53.84278922341764,138.08745980044478 53.81996830436401,137.22370173461968 53.29508716322016,136.59821946706506 50.44247226638254,135.22810873349954 48.63961965148337,135.25789384759264 47.361648177495226,136.35994000219216 46.44881141046062,138.2065985561494 46.311885895440355,140.23194673172839 46.813946117297746,140.8574178294366 49.16450079239439,140.79784923628904 50.328367670299485,141.36375016694365 51.19556259911042,141.27439749307814 53.50047543575056,139.1299215482286 53.72868462756742,137.6704736057436" stroke="#4dd2ff" stroke-linecap="round" stroke-linejoin="round" stroke-width="0.5"><title>2021-09-15 10.5km</title></polyline><polyline fill="none" points="113.08705882355571,139.38694000872783 102.79529411764815,131.92447127669584 88.43764705816284,133.58280190988444 84.2447058823891,137.06528833764605 83.22823529411107,145.19104837090708 79.54352941177785,151.824278658838 79.54352941177785,164.09565230319276 93.64705882314593,163.5981667675078 107.24235294060782,167.41221695777494 120.07529411744326,151.49261806637514 120.71058823540807,145.5227108077379 117.02588235260919,140.38193212554324 104.57411764701828,133.0853029745631 87.80235294112936,134.08030062622856 84.2447058823891,137.8944501952501 83.99058823566884,143.5327347307466 79.54352941177785,151.1609573776368 79.41647058771923,164.59313762024976 81.32235294114798,165.91976406425238 93.01176470611244,163.5981667675078 105.59058823483065,167.90970081824344 119.43999999994412,152.6534297137987 121.34588235244155,148.01017598912586 119.43999999994412,142.70357699983288 105.59058823483065,133.91446774522774 88.56470588222146,133.91446774522774 84.62588235270232,137.06528833764605 83.60941176488996,144.36189185432158 79.16235294099897,152.6534297137987 79.2894117650576,164.75896601052955 81.44941176474094,165.42227933031972 91.74117647018284,163.4323382070288 107.11529411748052,166.74890480341855 120.71058823540807,150.33180523000192 119.43999999994412,142.20608207036275 108.76705882372335,137.39695315354038 103.4305882351473,132.2561375972582 89.1999999997206,134.08030062622856 84.62588235270232,136.89945589343552 83.35529411770403,145.5227108077379 79.2894117650576,150.00014420133084 79.03529411787167,163.9298238157062 93.77411764673889,163.26650962268468 105.08235294092447,166.91473287832923 120.71058823540807,150.82929659134243 120.32941176416352,145.5227108077379 113.59529411746189,137.8944501952501 102.41411764686927,132.2561375972582 87.92941176472232,134.5777991245268 79.16235294099897,152.6534297137987 80.05176470568404,164.75896601052955 93.51999999955297,163.4323382070288 106.7341176471673,168.07552872330416 120.96470588259399,149.66848307533655 118.29647058807313,141.0452597180847 104.31999999983236,132.58780382119585 86.65882352879271,135.90446071780752 79.41647058771923,151.65844837471377 80.05176470568404,164.26148076634854 84.49882352957502,166.08559226093348 92.7576470579952,163.9298238157062 105.33647058811039,168.07552872330416 119.69411764666438,152.98508996609598 121.59999999962747,146.6835285720881 119.9482352938503,142.37191373785026 104.82823529373854,134.4119663160527 93.51999999955297,133.25113597745076 84.87999999988824,137.39695315354038 84.2447058823891,144.03022907755803 78.65411764709279,151.65844837471377 79.79764705849811,164.75896601052955 91.23294117674232,163.4323382070288 105.33647058811039,167.5780449353624 120.71058823540807,149.3368218522519 118.04235294088721,141.21109155577142 104.82823529373854,133.58280190988444 89.70823529409245,134.08030062622856 84.75294117676094,137.5627855247585 84.49882352957502,143.03524016484153 78.90823529427871,152.6534297137987 78.39999999990687,164.42730920563918 80.81411764631048,166.08559226093348 94.79058823548257,163.5981667675078 107.24235294060782,167.5780449353624 121.21882352931425,149.3368218522519 119.05882352916524,141.87441866239533 107.75058823497966,134.74363190867007 89.0729411765933,134.4119663160527 85.76941176503897,136.89945589343552 84.62588235270232,143.86439765244722 79.16235294099897,151.1609573776368 79.16235294099897,162.27153760462534 81.70352941192687,165.75393584382255 92.88470588205382,163.7639953037724 105.59058823483065,167.2463889552746 121.34588235244155,150.49763570807409 121.21882352931425,144.52772320644 116.77176470542327,140.21610016701743 103.81176470592618,133.91446774522774 90.21647058846429,133.91446774522774 85.76941176503897,136.40195841458626 80.68705882364884,149.3368218522519 79.2894117650576,164.59313762024976 95.55294117657468,163.7639953037724 106.35294117638841,167.90970081824344 120.5835294118151,153.1509200554574 120.96470588259399,146.35186647507362 117.02588235260919,138.8894436226692 105.33647058811039,133.58280190988444 88.05647058831528,134.5777991245268 80.43294117646292,149.66848307533655 80.05176470568404,165.25645103666466 93.39294117642567,163.26650962268468 102.92235294170678,167.5780449353624 120.83764705853537,153.98007013986353 120.96470588259399,144.19606047787238 109.27529411716387,135.07529740373138 102.79529411764815,133.25113597745076 90.97882353002205,134.4119663160527 84.2447058823891,138.06028249370866 79.54352941177785,150.49763570807409 79.92470588255674,164.59313762024976 94.28235294064507,163.5981667675078 106.98823529388756,167.2463889552746 116.13647058792412,158.29164079483598 120.96470588259399,149.8343136506155 119.3129411758855,142.53774538100697 105.84470588201657,133.74863483931404 89.70823529409245,133.74863483931404 85.64235294098035,137.06528833764605 79.2894117650576,150.82929659134243 80.43294117646292,166.08559226093348 95.42588235251606,164.26148076634854 104.31999999983236,167.90970081824344 119.9482352938503,153.81424017145764 121.47294117603451,149.66848307533655 118.16941176401451,141.54275515733752 108.00470588216558,134.08030062622856 88.05647058831528,133.74863483931404 85.26117647066712,135.5727954651229 80.55999999959022,150.49763570807409 79.67058823443949,164.26148076634854 92.88470588205382,163.4323382070288 105.33647058811039,167.2463889552746 119.18588235229254,155.6383684874745 121.59999999962747,150.33180523000192 119.69411764666438,142.86940859479364 107.36941176420078,134.4119663160527 87.42117647035047,134.246133483015 79.67058823443949,151.32678773417138 79.16235294099897,164.42730920563918 81.19529411755502,166.08559226093348 94.02823529392481,163.26650962268468 104.70117647014558,167.5780449353624 118.04235294088721,156.13585751876235 120.5835294118151,148.34183760010637" stroke="#4dd2ff" stroke-linecap="round" stroke-linejoin="round" stroke-width="0.5"><title>2021-09-03 12.5km</title></polyline><polyline fill="none" points="146.89569732935342,135.73584620521433 146.483086053413,135.10388019779202 146.32284866469854,135.07254274984734 145.68991097922844,135.5843842950926 144.82863501481188,136.8639561177115 144.39999999999418,137.1355328206264 144.5402077151375,138.92684288577584 144.6804154302663,139.4334070145269 144.76454005933192,139.4595183731799 145.1571216617158,139.33940596562024 145.99836795251758,139.3655173928637 148.48204747773707,139.17751469133145 149.54362017805397,139.20362623673282 151.72685459940112,139.0574013369951 152.57611275963427,138.7753944854594 153.93412462907145,137.6368997787431 154.62715133529855,137.15642325082445 155.0157270029449,136.97363157282962 156.46988130563113,136.5505958216927 157.52344213650213,135.97609481619293 157.7557863501279,135.70450931090818 157.16290801185824,134.97330731691545 156.9105341246177,134.38833495976723 156.47388724033954,132.48710872578886 156.68219584567123,132.3878661196286 159.68664688427816,132.42965251367423 160.05919881304726,132.37741951347925 160.96053412463516,132.58112778287978 164.32551928782777,132.53411828522803 165.39910979226988,132.76394190864085 167.25385756675678,133.29148600428744 167.95089020770683,133.08255858013217 168.31943620176753,133.1295673569657 175.6222551928804,135.02553652646748 175.75044510382577,135.24489837378133 175.8465875370748,135.8403023212959 175.99881305637246,136.13277782363366 176.2191394658439,137.04152573368992 176.6157270029653,139.1252915433397 176.5396142433019,139.69974197852207 176.27121661719866,140.42562524615641 175.8225519287662,142.11233309212912 175.46201780413685,145.30798255807167 175.35786350145645,146.900479095857 175.17359050443338,147.94992168321915 176.14703264094715,148.56599802086566 176.89213649851445,149.3230264560043 177.7614243323187,149.90253395492618 177.7373887240392,150.59688643956542 177.60919881303562,150.73262294528104 177.62121661720448,151.1189471056823 179.39985163204256,151.8445987838386 179.85652818990638,152.1682660111801 180.3091988130327,152.29877616194062 180.7378338278795,152.73206645021128 181.1424332344177,153.62995252080145 181.0382789317373,154.55913648556816 180.9301186943485,157.6858200073184 181.09836795250885,157.93114088411676 181.33872403559508,158.00421486291452 181.5229970326327,157.97289746168826 181.62715133529855,158.0459713552773 181.7353115726728,157.95723875080512 182.0958456973167,158.07728869257699 182.16795252224256,160.17548789419016 182.30415430266294,160.61390204838244 182.47640949551715,160.85398371531846 183.89050445101748,162.12743346994102 184.7758160237281,163.05117810740194 187.59999999999127,167.51299889932125 187.54792284863652,167.60170782909336 187.13531157268153,167.62258048652438 182.87700296734693,167.57039882013487 182.82492581600673,163.7244007131303 181.28664688426943,162.62323157686478 180.66572700295364,162.4666644952158 180.22908011867548,162.15874723767774 179.9366468842636,161.86126533864808 179.53605341244838,161.0627490737861 179.32373887239373,159.34561783373283 179.41988130562822,158.3539239824131 179.79243323441187,156.69929993579717 179.84851632047503,154.73661831973004 179.79243323441187,154.30335229433695 179.66023738871445,153.9692640675712 179.15148367951042,153.83876000711825 177.74940652817895,154.45473499559012 177.1044510385691,154.90365924220532 179.0272997032589,161.396771115702 179.1314540059102,165.91620059126944 179.0272997032589,165.3369522357716 178.90712166170124,161.4646189622472 178.49050445103785,160.09197982765545 177.86958456972206,160.61390204838244 177.4169139465812,160.73916224936693 175.36988130563986,160.76003890692664 174.20816023736552,160.69218972535236 174.5166172106692,160.6295595974807 175.8746290801064,160.6504363189306 175.9387240356009,160.593025305614 175.68635014836036,156.91330924430076 174.92922848663875,156.81413435794457 174.32032640949183,157.1847338442385 174.1480712166085,157.43527780242948 174.03590504449676,157.84240799505278 174.07596439168265,158.239094498942 174.3363501483691,158.9959184002655 174.2281899109803,159.52829528415532 173.94376854597067,159.81535796610115 173.50712166170706,159.92496311025752 173.0784866468748,159.81013866514695 172.70593471809116,159.58048867023535 172.14510385754693,159.05333197443179 171.50014836793707,158.91762701439802 170.96735905043897,159.05855138569677 170.5227002967149,159.4865405205237 170.13011869436014,159.69009453336548 169.78961424333102,159.742287683599 169.54525222550728,159.6379013070473 169.17670623143204,159.11074545652082 169.02448071214894,158.12426464717646 168.90830860534334,157.83196881717595 168.6038575667626,157.4770349583232 168.15919881303853,157.28912737322753 167.88679525221232,156.7932553994906 167.83071216616372,156.4800695615595 167.88278931750392,156.1199024609341 168.27136498513573,155.61879438017422 169.28086053411243,155.35779781009842 169.60133531155589,155.11245929924553 169.8176557863335,154.80447878849373 169.95385756675387,154.44429482986743 169.9859050445084,153.78655824971793 170.11810089019127,153.311518759132 170.71899109790684,152.48670994312124 170.6308605341037,152.34575969975413 170.61083086051804,151.95944878016962 170.8311572700186,151.42695932713104 171.5762611275859,151.70364601197798 172.64985163204256,152.48148957362355 173.46706231453572,153.4263640489371 174.22418397624278,154.44951491310712 175.05341246289026,155.23773874889594 175.57017804152565,156.14078181208606 175.738427299686,156.14078181208606 177.02433234419732,155.06025939914616 176.77997032638814,154.56435655208043 174.54065281897783,151.7297484190276 174.3563798219402,151.40085669931068 174.24020771512005,150.863138330722 174.48456973291468,149.60495019506925 175.21364985161927,147.29728687634997 175.59421364983427,142.49352849360002 175.6623145400372,142.30032037301135 175.59421364983427,142.11233309212912 173.35890207714692,142.05489233709886 172.12908011868421,142.12277685587105 172.0089020771411,142.18021750193657 170.4265578634804,142.18021750193657 167.8227002967178,142.34209519017895 166.54480712166696,142.28987666107787 165.66350148367928,142.4204228409253 165.5833827893075,142.35776073404486 165.5833827893075,141.80424069049695 165.21083086052386,140.42562524615641 164.96646884272923,138.7492826275011 164.86632047475723,138.52471986234377 163.1758160237223,138.39415946714144 162.82329376853886,138.4672733471598 162.5068249258038,138.62916783543187 161.46528189910168,139.7310753733509 161.02863501483807,139.9921859297392 160.55593471808243,139.6214083714076 160.01913946586137,138.98428866301037 160.38367952521367,139.55874136220882" stroke="red" stroke-linecap="round" stroke-linejoin="round" stroke-width="0.5"><title>2021-05-23 41.5km</title></polyline><polyline fill="none" points="45.04133311269106,216.07224328159646 46.44059892592486,216.49221887250314 46.826603288180195,216.87019585214148 46.939187893876806,217.35316498680913 45.99026050331304,218.27710140547424 46.50493298628135,219.60000000000582 48.90137673547724,218.57107992611418 49.52863382414216,218.63407524490322 51.088734788354486,216.05124446976697 51.32998751476407,215.21128947312536 51.16915236384375,212.01941559264378 51.44257212046068,208.44947243660863 50.86356557701947,207.06347054216894 49.83422061096644,206.09746129521227 49.641218429780565,205.1104451220017 50.091556852450594,203.87141519691795 51.76424242235953,202.42236661026254 52.05374569405103,201.70833728041907 51.9572446034872,200.95230234757764 50.86356557701947,199.23020788915164 50.509728244913276,197.86511830997188 46.16717916930793,195.9749728096067 44.55882765981369,195.55493709052098 44.36582547868602,195.82796044797578 43.127394816372544,195.74395331644337 39.7176896163146,196.37400560232345 38.73659519548528,194.98788691678783 38.59184355958132,193.47574215011264 38.99393143702764,192.44663450332882 38.8974303464056,191.31250731172622 39.412102829432115,190.93446291988948 39.29951822385192,187.55302150138596 39.846357737027574,187.02794580069894 44.124572752276435,186.67089322522224 49.81813709583366,185.53672031883616 51.76424242235953,185.4317038549052 53.37259393179556,184.90662038061419 53.356510416720994,184.25551420025295 52.84183793369448,182.029128776383 51.47473915060982,180.4538351726369 50.075473337376025,180.15977844836016 48.35453722218517,180.53785126873117 47.03568898444064,181.230982181718 45.04133311269106,180.6638753205334 41.197373004979454,178.14337322414212 40.2323620992247,177.09315093072655 37.59466562373564,176.40000000000873 32.52835836878512,176.8831055482733 26.70612590451492,176.92511464946438 24.08451294398401,177.66027192525507 19.227291385410354,177.82830734444724 17.056016847549472,178.4794427321758 15.399414792773314,179.94973756156105 14.7078236436937,181.02094286518695 14.530904977640603,182.82727092508867 15.705001579597592,184.423541884913 16.267924607906025,186.18782067744178 20.481805562740192,185.6417367058748 27.76763790071709,185.6417367058748 30.212332195194904,186.79691188283323 30.389250861189794,187.27998237714928 30.14799813478021,188.64517279560096 30.807422253710683,189.90533702225366 32.22277158201905,190.367394461995 33.750705516082235,191.83756731261383 34.50663072546013,191.94257908190775 36.324067931156605,191.33350974874338 38.38275786343729,191.33350974874338 39.33168525400106,190.93446291988948 39.251267678511795,187.84706305329746 39.669439071032684,187.0909549863427 45.314752869307995,186.64989010478894 53.06700714502949,185.28468067609356 53.4690950223594,184.6335762135859 52.85792144876905,182.21816284503439 50.92789963737596,180.26479877630481 49.367798673163634,180.32781093611266 47.116106559871696,181.230982181718 44.99308256740915,180.6848793183308 42.96655966545222,179.5926673472859 41.0526213691337,178.14337322414212 40.40928076533601,177.2821915116947 37.160410716198385,176.40000000000873 33.461202244332526,176.8831055482733 31.289927706471644,176.7570781710092 29.150820198876318,177.15616448543733 26.09495233092457,177.11415545204363 24.100596459174994,177.7442896595021 20.095801200484857,177.68127636346617 17.216851998528,178.41642975948344 15.511999398411717,180.01274985993223 14.7078236436937,181.3360017244995 14.627406068262644,182.78526355446957 15.351164247491397,183.7304264157574 16.251841092831455,186.31383975991048 21.173396711819805,185.74675301580282 27.655053295078687,185.68374323906028 30.29274977062596,186.81791498168604 30.501835466886405,187.61603045616357 30.11583110463107,189.02322322729742 30.421417891338933,189.6743077436695 31.12909255560953,190.2203763472935 32.36752321792301,190.34639188340225 33.71853848581668,191.83756731261383 35.03738672361942,192.06859310349682 36.91915798973059,191.24949998235388 38.86526331619825,191.43852188740857 38.97784792189486,192.2996185218799 38.527509499224834,193.76977154887572 38.752678710618056,195.3449187692604 37.739417259639595,196.5000157271279 36.17931629536906,196.4790140473342 33.493369274481665,195.76495510392124 32.56052539899247,195.9749728096067 30.775255223561544,196.87804543660604 29.745910257392097,198.43215709865035 28.941734502732288,199.0411962614744 27.333382993238047,199.75523888027237 25.56419633270707,199.96525073809607 24.132763489324134,200.55328230284795 21.07689562125597,203.34639928561228 20.851726409920957,205.3414495165489 21.495067013718653,206.97946999661508 22.86216579680331,208.26047296758043 24.856521668552887,209.41546583062154 25.644613908196334,210.3184537677007 27.124297296977602,210.61244861262094 29.1025696535944,211.68342473334633 30.308833285758737,214.05634331528563" stroke="#4dd2ff" stroke-linecap="round" stroke-linejoin="round" stroke-width="0.5"><title>2021-05-16 14.8km</title></polyline><polyline fill="none" points="95.14886633280548,219.60000000000036 95.13543758909509,219.25426189804966 95.31001125740295,219.05294420468454 96.33059577975655,218.9391553453006 99.40913527650991,218.87350772998798 100.5505784923298,218.73783553619796 101.32944562782359,218.77722430086396 102.17881366783695,218.7028232574885 102.28288643162523,218.7553416602077 102.96775236111716,218.7597181896108 103.2463987932133,218.6590578516243 103.54518834086775,218.73783553619796 104.27705487336789,218.66781093789905 105.29763939573604,218.71595286679258 106.34172421961557,218.6459282173946 106.43236823969346,218.69844671977626 107.36230874198372,218.74221206815673 107.65774110371422,218.69407018142556 107.53688241027703,217.8975295626242 107.38580904348055,217.55177182834632 107.20116381738626,216.68954846270753 107.12394854103331,215.91921625860778 107.0702335661772,214.52293868377456 107.11387698323233,213.86198210544353 107.00644703353464,213.402367947092 106.98294673202327,211.4456459491248 106.93594612901506,211.17423370490906 106.9628036164504,210.48255913111825 106.85873085264757,209.58073159895866 106.90573145565577,209.344325717846 106.81173024965392,207.99590096471002 106.81173024965392,206.46352645632214 106.69087155623129,204.57640903299944 106.73787215921038,204.1779537307284 106.68751437029277,203.35913334458746 106.78822994814254,201.41489261698916 106.72108622957603,201.16966410495843 106.46929728490068,200.84998820917826 106.42229668190703,200.587238343438 106.21415115430136,200.54344647508515 105.46214150625747,200.49089614856166 99.00963015099114,200.78430095878684 98.26769206070458,200.7317510547855 98.14011899541947,200.6091342535874 98.00583155825734,198.81799590965238 98.02261748790625,196.1026186167055 97.91183035225549,193.9958418029364 97.96554532711161,192.9752500592458 97.84804381962749,192.49779391087577 97.9454022115533,192.26563358343265 97.82118633216305,191.87139494174335 97.81447196031513,191.6041858000808 97.87825849297224,191.14423005341996 97.85811537738482,189.77746271611431 97.7271851261612,187.38108862234185 97.77754291510792,187.07002782896598 97.70032763874042,186.62314610268913 97.76747135732148,186.03167473702342 97.63318392015935,185.96595497502676 96.78045869423659,186.0842504427419 96.55217005107261,186.36903391072337 96.2835951767629,186.51361524995446 95.02129326752038,186.59685873458875 94.62514532789646,186.4960902763396 94.35657045360131,186.19816415503738 93.48034492616716,186.0930130513716 93.36284341865394,184.11259828093353 93.40984402166214,183.0478521126297 94.8232192977157,182.9733622800286 95.07165105645254,182.08385171956434 95.07165105645254,181.63689554802113 94.95750673487782,181.06723585084546 94.48750070482492,179.8007996776414 94.3397845239524,179.09525316711006 94.16856804158306,177.70602290733405 94.20213990088087,176.39999999999964 92.88612301676767,176.42629632554235 92.42954573043971,176.46574077052173 92.34225889628578,176.52709869269347 92.38254512744606,177.4211569995623 92.49333226308227,177.69725784291586 94.08799557927705,177.6052245115152 94.17863959936949,177.69287530973816 94.18871115715592,178.23630452850557 94.35321326767735,179.3625739885665 93.15805507701589,179.44583736328423 93.0539823131985,179.42830825102828 93.02712482576317,179.29683958174064 92.98012422276952,177.7410831393281 92.97005266498309,178.64825236039542 93.08083980063384,180.19957947813418" stroke="#ffa700" stroke-linecap="round" stroke-linejoin="round" stroke-width="0.5"><title>2021-04-24 20.9km</title></polyline><polyline fill="none" points="144.4323595505848,191.0389251049637 150.64539325839723,190.9017953790244 150.84764044941403,191.95663272354432 150.76674157302477,193.0536472208405 150.92044943821384,194.75187718881352 150.61303370786482,199.57210128382576 148.41258426965214,199.61429000919452 148.01617977532442,199.45608216201072 144.4323595505848,199.28732674314233 144.81258426967543,200.44751228675887 144.61033707862953,201.19634942524863 144.60224719101097,203.18969496252976 144.39999999999418,203.33734799963713 144.66696629216312,203.93850367821142 144.61033707862953,205.64702408640733 144.7802247191139,206.19542947893206 144.78831460676156,206.9442070431396 147.19910112360958,206.93366093412624 148.33977528088144,206.7754691144437 151.2764044943615,206.92311482359946 159.98921348311706,206.41689970752486 163.31415730336448,206.55399998498615 168.16808988762205,206.18488326065562 167.94157303369138,198.9814565416309 167.34292134828866,190.27943411999877 164.67325842694845,190.2477884889886 159.29348314602976,190.5220501638687 158.75955056180828,190.60643816198717 158.5168539325823,190.84905310741306 158.33887640450848,191.23934500533505 158.3874157303071,195.1632436584623 158.96179775282508,205.46773680515616 159.17213483148953,206.5012691398224 159.51191011237097,206.43799207481788 167.91730337077752,198.93926744667988 167.8121348314453,198.31697543424525 167.9011235954822,194.84680812051374 167.6826966291992,193.52831179110217 167.7393258426746,191.56634470148856 167.56134831460076,191.29208699194714 167.76359550558846,191.01782824101974 167.79595505617908,190.63808363587304 167.5370786516869,190.22669139394566 170.71640449436381,189.14018266814674 171.06426966292202,189.2140235846382 171.55775280899252,189.05579295686766 172.12404494380462,189.31951047725306 173.32134831458097,189.05579295686766 174.07370786514366,189.40389988038805 174.5995505618048,189.2984131110279 179.2997752809024,189.31951047725306 179.5748314606608,189.50938649566524 179.43730337076704,189.99462294168916 179.58292134833755,190.16340007184044 179.55865168539458,191.08111881441437 179.34831460673013,191.41866760266566 179.67191011237446,192.30472566668323 179.55056179774692,193.12748413663212 179.81752808988676,194.05571321090247 179.71235955055454,194.65694613238884 179.9388764044561,195.18433931174513 179.72853932582075,196.2602094580434 179.8660674156854,196.8086861109914 179.76898876402993,198.04274335419905 180.04404494378832,198.3697122533922 179.01662921346724,198.46463843076344 177.30966292132507,198.22204906281695 176.67865168538992,198.40135432636453 176.20134831458563,198.1060277727738 174.84224719097256,198.27478595121647 174.4134831460833,198.49628046218277 173.96853932584054,198.2642385766303 172.47999999998137,198.60175380009605 172.3101123595261,198.75996351829963 171.83280898878002,198.4119016809491 171.57393258425873,198.64394309218915 171.4687640448974,198.48573311990913 171.3797752808896,198.57011181491544 171.08853932583588,199.19240164678195 170.99955056179897,199.63538436264207 171.21797752808197,204.1177947543183 171.01573033706518,206.07942099303182 171.20179775278666,206.16379081941704 174.03325842693448,205.94231981499615 174.36494382022647,206.18488326065562 174.46202247188194,205.94231981499615 175.0364044943417,205.79467210155417 175.61078651685966,205.9212273029989 175.94247191009345,205.7630332665649 179.3725842696731,205.86849599599373 179.6638202246977,205.74194070220256 187.59999999997672,205.54156103366404 187.22786516850465,203.36898789688712 187.4382022471691,202.81001433856727 187.33303370783688,199.7197617148122 187.13078651682008,198.86543647123472 187.2359550561814,198.22204906281695 186.96898876401247,197.3466110909576 187.11460674155387,194.59365869208705 186.758651685348,194.19283694928163 186.92044943818473,193.23296531396772 186.77483146067243,192.84268418837019 186.96898876401247,192.14650180958415 186.76674157299567,190.61698665482254 186.83146067411872,189.39335121040494" stroke="#4dd2ff" stroke-linecap="round" stroke-linejoin="round" stroke-width="0.5"><title>2021-02-10 19.5km</title></polyline><polyline fill="none" points="29.109905310251634,267.60000000000036 29.13653618672106,266.84926984305275 29.243059692555107,266.7104043838808 29.42614696820965,266.6322922780637 34.193073854301474,266.49776539252525 35.07522163700196,266.38927552528367 35.7443224080198,266.41531312952975 36.450040634168545,266.3372002483902 37.605154900593334,266.36323789823837 38.214336199554964,266.30248334644784 38.56386645307066,266.34587946754255 40.318175439795596,266.28512488028537 40.91071244100749,266.3155021894345 41.07049769976584,266.3849359223623 41.54319575690897,266.33286063786545 41.469960846647155,265.72096921223056 41.30684672833013,265.33039363205717 41.090470857103355,264.14995624389485 40.96397419391724,260.9903196434643 40.87742384543526,260.17431496146855 40.9173701601394,259.5232313268971 40.85745068809774,259.1238929740375 40.82416209251096,256.7190681353004 40.74759832270502,256.2545759319455 40.73761174402898,254.2966831969843 40.58448420438799,251.9175179468948 40.70765200801543,249.22118978965955 40.677692271987326,249.02145204205772 40.41804122652684,248.61328812054126 40.351464035367826,248.36578173440284 40.18834991706535,248.32670159017653 39.31285985348222,248.28762139454557 37.72832270419167,248.4092040565829 37.395436748469365,248.37446620392802 35.31822838468361,248.5003907265309 34.53261752915569,248.45696853765912 34.30625507925288,248.53947064224485 33.16445625110646,248.57420830194133 32.35221451910911,248.52644400938698 32.1258520692063,248.37880843773019 32.05927487806184,247.95760880322814 32.082576894943486,245.82112279764078 31.946093653110438,243.21544404711858 31.932778214890277,241.22194544268132 31.836241287732264,240.60084990698306 31.85621444506978,240.3054992203397 31.946093653110438,240.12741871016988 31.852885585511103,240.0752973832041 31.896160759744816,239.9667109914917 31.796294973042677,239.47155201113674 31.889503040642012,238.72879805709454 31.759677517882665,235.4144121493082 31.80295269214548,235.10597734126895 31.78963725391077,233.9851590851158 31.589905680477386,233.88958347715197 31.010684117500205,233.9156495825755 30.80096596540534,233.98081474598075 30.484724307447323,234.31967128966426 30.374871942054597,234.3718027222876 29.11989188894222,234.45868823988167 28.77701935452933,234.42393406335395 28.32762331428239,234.06770140799927 27.505395003638114,233.99384776150873 27.38888491911348,231.1003779273451 27.708455436644726,230.965690028479 28.757046197191812,230.935276547365 29.006710663990816,230.75279500620127 29.079945574252633,229.49277279175294 29.006710663990816,229.12344579761884 28.5240260281862,227.81555677774304 28.337609892958426,227.02036683773258 28.14120717908372,225.38646708085253 28.201126651125378,224.40000000000146 26.456804243076476,224.4695317937494 26.486763979075477,225.4951068249793 26.629904940040433,225.6428562386518 27.755059470422566,225.60809173692178 28.17782463421463,225.65589291630567 28.284348140048678,226.8117888995439 28.394200505441404,227.27239655698213 28.28101928049,227.35930286040457 27.109260716300923,227.40275591667705 26.99607949134952,225.76453167396903 27.105931856742245,228.2326970777449" stroke="#ffa700" stroke-linecap="round" stroke-linejoin="round" stroke-width="0.5"><title>2019-04-14 20.9km</title></polyline><polyline fill="none" points="94.87156954266538,267.60000000000036 94.96708944199781,267.3337930008638 94.9473267042049,266.4492814790319 95.12519134434115,266.2560594033457 101.05730647193559,265.97266472990304 107.19693034638476,265.89966869001 107.22986824270629,265.7493821551798 107.15740487078438,265.6291523744894 107.13105455372715,265.2126382628594 106.943308544709,264.81329445292613 106.7621501149406,263.8514118373332 106.68639295338653,262.9667955942714 106.49535315472167,256.65347027102325 106.2285561945173,251.05194348473924 106.3471326212748,248.8307972462062 106.03092881658813,248.31522672920255 106.00128470989875,248.13047842626474 105.91235238983063,248.07892055307093 105.05926087507396,248.02736258944242 98.70554067454941,248.31952318754156 98.03690137920785,248.2464833102731 97.86891810796806,248.10040301122717 97.7997485256783,246.7856476459583 97.78327957753208,244.35792189268068 97.64494041298167,240.84273518772716 97.57247704108886,240.38289359751798 97.6152963062923,240.07776109337465 97.71410999525688,239.94023554842352 97.56918325144215,239.5706324564926 97.52965777585632,239.21821587558952 97.62188388554205,237.9331488712014 97.52965777585632,235.2553871805194 97.54942051364924,233.84978695919563 97.41108134909882,233.7767111021385 96.6172780477209,233.8411898089762 96.15614749921951,234.24955166523796 96.00133938650833,234.30973082721903 94.79251859147917,234.33982036196903 94.52572163127479,234.2882382835287 94.08435382056632,233.94005688455763 93.2872567295708,233.87557839474175 93.1686803028133,231.75200769681942 93.19173683023837,231.02978671993696 93.42559589412122,230.90511582510408 94.62453532023937,230.84063067183524 94.86827575303323,229.8862338468025 94.87156954266538,229.44771679734004 94.79910617075802,229.09947800476402 94.26221846070257,227.56459855509092 94.10411655835924,226.8508737794673 93.97895255233743,225.87484856130322 93.98224634196959,225.65986067251106 94.04153455534833,225.57816486200318 94.80569375000778,225.53946676714804 94.84192543597601,225.46637022659706 94.81886890855094,225.42337217653403 93.98883392121934,225.43197179159324 93.97895255233743,224.40000000000146 92.98093429378059,224.41289987127857 92.78001312620472,224.43439964415302 92.77013175730826,224.47739914267368 92.83271376033372,225.61686290584657 93.90319539079792,225.59536399890203 93.96577739379427,225.64696134912265 94.01518423829111,226.46820696597388 94.1765799302666,227.2722314677394 94.09094139983063,227.33672445785305 92.872239235905,227.36252161424272 92.79977586401219,225.74585601693434 92.91176471150538,228.18801865161913 92.83930133959802,228.2912041495165 92.88541439444816,228.60075846752625 92.99410945229465,228.67814653713322 92.82283239142271,228.58356109103988 92.79977586401219,228.2654078090327 92.83271376033372,228.69964318694656" stroke="#ffa200" stroke-linecap="round" stroke-linejoin="round" stroke-width="0.5"><title>2018-04-15 21.6km</title></polyline><polyline fill="none" points="175.3975229744101,264.2081312217051 176.9370489224093,264.1871935100935 178.5086483277264,264.6896977416036 178.71712579979794,265.317825546299 178.07565665483708,266.3646990860434 178.21998721238924,267.2440669334028 178.76523598568747,267.6000000000058 181.7320307813352,266.3856364786334 183.1913730861852,263.328744693863 183.35174037254183,256.1887632729922 183.2234465435613,255.64435122560826 181.94050825352315,254.1157986210892 181.68392059544567,252.92225987721758 182.036728625244,252.02186440340301 183.7686953168013,250.38857441290747 183.9932095175609,249.4881629740412 183.7686953168013,248.62962585278729 182.8064915993018,247.20569925493328 182.66216104163323,245.99116241429874 178.3162075841683,244.08557518656016 177.16156312311068,243.6248799541936 175.91069829044864,244.02275319691398 173.60140936839161,243.98087185509212 171.80529576237313,244.52532834095473 170.66668802994536,242.74536674944102 170.85912877344526,239.4366733443021 171.35626736079575,238.68278311651375 171.21193680318538,235.75094997075212 171.45248773263302,235.49964718740375 184.36205427593086,233.55203562923998 185.3723681793199,233.25884449333535 185.46858855104074,232.40020984841976 184.55449501937255,229.6357900860312 183.3036301866523,228.16978820411896 182.21313264017226,228.10695921588922 178.84541962877847,229.09127685741987 177.22571003768826,228.81901946481958 175.68618408968905,228.16978820411896 173.16841769544408,226.30584980297135 172.49487509322353,225.3843431827845 169.17527226777747,224.40000000000873 164.8132820817409,224.8817007028556 158.14200297358911,225.09113528439775 156.15344862407073,225.69849383478868 152.93006617040373,225.63566375963273 149.2736920438474,226.34773632623546 147.83038646756904,227.49961090486613 146.9644031218486,228.63053327373927 146.5474481775309,230.38972805335652 146.53141144895926,230.9342363330943 147.5417253523483,232.40020984841976 148.1992312259972,234.38972127372108 153.63568222994218,233.8033418382838 159.8258594792569,233.8033418382838 162.21533204440493,234.80856225415482 162.2794789589243,237.44723219668958 163.0492419329239,238.13830436691933 164.41236386605306,238.5152514145302 165.67926542746136,239.96020588440297 167.3470852044993,240.08585340858554 168.88661115249852,239.26914252630377 170.6506513012573,239.4366733443021 170.85912877344526,240.37903053528862 170.47424728644546,241.71926116818213 170.6827247585752,243.31076871688128 169.8007046841085,244.69285299610056 165.90377962822095,243.8971091346757 164.01144565048162,244.1902784413105 160.9805039402563,247.05911777022993 159.2806107060169,247.77108357315592 157.1797992560314,248.16894527093973 157.00339524121955,248.671505832026 157.6769378434983,249.88601989076415 157.45242364268051,250.87018750475545 156.68266066873912,251.68683208111906 157.00339524121955,252.3150170410081 157.32412981369998,252.1893802699342 157.7571214865893,252.6291084853292 157.3722399995895,253.92734579794342 157.6769378434983,254.78585109054984 158.78347211854998,255.8746796525811 160.11452059447765,255.12087614710617 160.59562245331472,255.74904601117305 161.5097159849829,256.1678243864444 161.3974588845158,257.7382323638303 162.13514840131393,258.7223459004599 162.63228698866442,258.9317308849859 162.776617546333,259.4970688107569 163.48223360581324,259.9786512056453 163.32186631957302,260.56492323521525 162.31155241618399,261.0046256790374 162.84076446079416,262.19809692126 163.41808669135207,262.65873227881093 166.16036728624022,262.9728009895043" stroke="#4dd2ff" stroke-linecap="round" stroke-linejoin="round" stroke-width="0.5"><title>2016-05-22 10.0km</title></polyline></svg>